{
  "accessors": [
    {
      "bufferView": 2,
      "componentType": 5126,
      "count": 65533,
      "max": [
        0.29741498827934265,
        0.58626902103424072,
        0.32509100437164307
      ],
      "min": [
        -0.29741498827934265,
        -0.00015999999595806003,
        0.020256999880075455
      ],
      "type": "VEC3"
    },
    {
      "bufferView": 2,
      "byteOffset": 786396,
      "componentType": 5126,
      "count": 65533,
      "max": [
        0.99978393316268921,
        0.99973875284194946,
        1
      ],
      "min": [
        -0.99978691339492798,
        -0.99985587596893311,
        -1
      ],
      "type": "VEC3"
    },
    {
      "bufferView": 3,
      "componentType": 5126,
      "count": 65533,
      "max": [
        1,
        0.99999970197677612,
        0.99987190961837769,
        1
      ],
      "min": [
        -1,
        -1,
        -0.99753004312515259,
        -1
      ],
      "type": "VEC4"
    },
    {
      "bufferView": 1,
      "componentType": 5126,
      "count": 65533,
      "max": [
        0.99008500576019287,
        0.30106499791145325
      ],
      "min": [
        0.69893497228622437,
        0.0099149998277425766
      ],
      "type": "VEC2"
    },
    {
      "bufferView": 0,
      "componentType": 5125,
      "count": 172665,
      "max": [
        65532
      ],
      "min": [
        0
      ],
      "type": "SCALAR"
    },
    {
      "bufferView": 2,
      "byteOffset": 1572792,
      "componentType": 5126,
      "count": 43648,
      "max": [
        0.2967279851436615,
        0.5530170202255249,
        0.3245370090007782
      ],
      "min": [
        -0.29265099763870239,
        -0.00015999999595806003,
        0.018851999193429947
      ],
      "type": "VEC3"
    },
    {
      "bufferView": 2,
      "byteOffset": 2096568,
      "componentType": 5126,
      "count": 43648,
      "max": [
        0.99995672702789307,
        0.99997794628143311,
        0.99560379981994629
      ],
      "min": [
        -0.99997341632843018,
        -0.99985587596893311,
        -0.95784538984298706
      ],
      "type": "VEC3"
    },
    {
      "bufferView": 3,
      "byteOffset": 1048528,
      "componentType": 5126,
      "count": 43648,
      "max": [
        0.99997806549072266,
        0.99999594688415527,
        0.99960041046142578,
        1
      ],
      "min": [
        -0.99979960918426514,
        -0.99997085332870483,
        -0.96076798439025879,
        -1
      ],
      "type": "VEC4"
    },
    {
      "bufferView": 1,
      "byteOffset": 524264,
      "componentType": 5126,
      "count": 43648,
      "max": [
        0.99008500576019287,
        0.97582697868347168
      ],
      "min": [
        0.018466999754309654,
        0.0099149998277425766
      ],
      "type": "VEC2"
    },
    {
      "bufferView": 0,
      "byteOffset": 690660,
      "componentType": 5125,
      "count": 95265,
      "max": [
        43647
      ],
      "min": [
        0
      ],
      "type": "SCALAR"
    },
    {
      "bufferView": 2,
      "byteOffset": 2620344,
      "componentType": 5126,
      "count": 2284,
      "max": [
        0.2967279851436615,
        0.18071399629116058,
        0.078102998435497284
      ],
      "min": [
        -0.29265099763870239,
        -0.21883800625801086,
        0.018851999193429947
      ],
      "type": "VEC3"
    },
    {
      "bufferView": 2,
      "byteOffset": 2647752,
      "componentType": 5126,
      "count": 2284,
      "max": [
        0.99995672702789307,
        0.029099317267537117,
        0.99999642372131348
      ],
      "min": [
        -0.99998438358306885,
        -0.9999089241027832,
        -0.99999642372131348
      ],
      "type": "VEC3"
    },
    {
      "bufferView": 3,
      "byteOffset": 1746896,
      "componentType": 5126,
      "count": 2284,
      "max": [
        0.99986129999160767,
        0.99999594688415527,
        0.35169321298599243,
        1
      ],
      "min": [
        -0.33455130457878113,
        -0.99998277425765991,
        -0.17396433651447296,
        -1
      ],
      "type": "VEC4"
    },
    {
      "bufferView": 1,
      "byteOffset": 873448,
      "componentType": 5126,
      "count": 2284,
      "max": [
        0.98604100942611694,
        0.30106499791145325
      ],
      "min": [
        0.10024899989366531,
        0.0099149998277425766
      ],
      "type": "VEC2"
    },
    {
      "bufferView": 0,
      "byteOffset": 1071720,
      "componentType": 5125,
      "count": 4974,
      "max": [
        2283
      ],
      "min": [
        0
      ],
      "type": "SCALAR"
    }
  ],
  "asset": {
    "extras": {
      "author": "Bkavin.Kumar (https://sketchfab.com/Bkavin.Kumar)",
      "license": "CC-BY-4.0 (http://creativecommons.org/licenses/by/4.0/)",
      "source": "https://sketchfab.com/3d-models/cap2-f6cc7835e94c4b248d02b6708d565ec6",
      "title": "Cap2"
    },
    "generator": "Sketchfab-6.43.0",
    "version": "2.0"
  },
  "bufferViews": [
    {
      "buffer": 0,
      "byteLength": 1091616,
      "byteOffset": 0,
      "name": "floatBufferViews",
      "target": 34963
    },
    {
      "buffer": 0,
      "byteLength": 891720,
      "byteOffset": 1091616,
      "byteStride": 8,
      "name": "floatBufferViews",
      "target": 34962
    },
    {
      "buffer": 0,
      "byteLength": 2675160,
      "byteOffset": 1983336,
      "byteStride": 12,
      "name": "floatBufferViews",
      "target": 34962
    },
    {
      "buffer": 0,
      "byteLength": 1783440,
      "byteOffset": 4658496,
      "byteStride": 16,
      "name": "floatBufferViews",
      "target": 34962
    }
  ],
  "buffers": [
    {
      "byteLength": 6441936,
      "uri": "scene.bin"
    }
  ],
  "images": [
    {
      "uri": "textures/Default_OBJ_baseColor.png"
    }
  ],
  "materials": [
    {
      "doubleSided": true,
      "emissiveFactor": [
        0,
        0,
        0
      ],
      "name": "Default_OBJ",
      "pbrMetallicRoughness": {
        "baseColorFactor": [
          1,
          1,
          1,
          1
        ],
        "baseColorTexture": {
          "index": 0,
          "texCoord": 0
        },
        "metallicFactor": 0,
        "roughnessFactor": 0.80635083268962915
      }
    },
    {
      "doubleSided": true,
      "emissiveFactor": [
        0,
        0,
        0
      ],
      "name": "Material.001",
      "pbrMetallicRoughness": {
        "baseColorFactor": [
          1,
          1,
          1,
          1
        ],
        "metallicFactor": 0,
        "roughnessFactor": 0.80635083268962915
      }
    }
  ],
  "meshes": [
    {
      "primitives": [
        {
          "attributes": {
            "NORMAL": 1,
            "POSITION": 0,
            "TANGENT": 2,
            "TEXCOORD_0": 3
          },
          "indices": 4,
          "material": 0,
          "mode": 4
        }
      ]
    },
    {
      "primitives": [
        {
          "attributes": {
            "NORMAL": 6,
            "POSITION": 5,
            "TANGENT": 7,
            "TEXCOORD_0": 8
          },
          "indices": 9,
          "material": 0,
          "mode": 4
        }
      ]
    },
    {
      "primitives": [
        {
          "attributes": {
            "NORMAL": 11,
            "POSITION": 10,
            "TANGENT": 12,
            "TEXCOORD_0": 13
          },
          "indices": 14,
          "material": 1,
          "mode": 4
        }
      ]
    }
  ],
  "nodes": [
    {
      "children": [
        1
      ],
      "name": "RootNode (gltf orientation matrix)",
      "rotation": [
        -0.70710678118654746,
        -0,
        -0,
        0.70710678118654757
      ]
    },
    {
      "children": [
        2
      ],
      "name": "RootNode (model correction matrix)"
    },
    {
      "children": [
        3,
        4,
        5
      ],
      "name": "CAPD2.obj.cleaner.materialmerger.gles"
    },
    {
      "mesh": 0,
      "name": ""
    },
    {
      "mesh": 1,
      "name": ""
    },
    {
      "mesh": 2,
      "name": ""
    }
  ],
  "samplers": [
    {
      "magFilter": 9729,
      "minFilter": 9987,
      "wrapS": 10497,
      "wrapT": 10497
    }
  ],
  "scene": 0,
  "scenes": [
    {
      "name": "OSG_Scene",
      "nodes": [
        0
      ]
    }
  ],
  "textures": [
    {
      "sampler": 0,
      "source": 0
    }
  ]
}

