{
  "accessors": [
    {
      "bufferView": 2,
      "componentType": 5126,
      "count": 16811,
      "max": [
        0.29754200577735901,
        0.58631998300552368,
        0.32504099607467651
      ],
      "min": [
        -0.29754200577735901,
        -0.016170000657439232,
        0.018845999613404274
      ],
      "type": "VEC3"
    },
    {
      "bufferView": 2,
      "byteOffset": 201732,
      "componentType": 5126,
      "count": 16811,
      "max": [
        0.99888020753860474,
        0.99992084503173828,
        1
      ],
      "min": [
        -0.99993753433227539,
        -0.99954909086227417,
        -0.99999701976776123
      ],
      "type": "VEC3"
    },
    {
      "bufferView": 3,
      "componentType": 5126,
      "count": 16811,
      "max": [
        0.99988377094268799,
        0.99999618530273438,
        0.99853998422622681,
        1
      ],
      "min": [
        -0.99999547004699707,
        -0.99993127584457397,
        -0.99979251623153687,
        -1
      ],
      "type": "VEC4"
    },
    {
      "bufferView": 1,
      "componentType": 5126,
      "count": 16811,
      "max": [
        1.0347959995269775,
        0.97582697868347168
      ],
      "min": [
        0.018466999754309654,
        0.0090760001912713051
      ],
      "type": "VEC2"
    },
    {
      "bufferView": 0,
      "componentType": 5125,
      "count": 26235,
      "max": [
        16810
      ],
      "min": [
        0
      ],
      "type": "SCALAR"
    },
    {
      "bufferView": 2,
      "byteOffset": 403464,
      "componentType": 5126,
      "count": 2470,
      "max": [
        0.2967279851436615,
        0.20015700161457062,
        0.078203000128269196
      ],
      "min": [
        -0.29275500774383545,
        -0.21883800625801086,
        0.018845999613404274
      ],
      "type": "VEC3"
    },
    {
      "bufferView": 2,
      "byteOffset": 433104,
      "componentType": 5126,
      "count": 2470,
      "max": [
        0.99995672702789307,
        0.057101361453533173,
        0.99999690055847168
      ],
      "min": [
        -0.99998652935028076,
        -0.9999089241027832,
        -0.99999690055847168
      ],
      "type": "VEC3"
    },
    {
      "bufferView": 3,
      "byteOffset": 268976,
      "componentType": 5126,
      "count": 2470,
      "max": [
        0.99986124038696289,
        0.99999558925628662,
        0.1701815128326416,
        1
      ],
      "min": [
        -0.029116969555616379,
        -0.9999920129776001,
        -0.47180089354515076,
        -1
      ],
      "type": "VEC4"
    },
    {
      "bufferView": 1,
      "byteOffset": 134488,
      "componentType": 5126,
      "count": 2470,
      "max": [
        0.98604100942611694,
        0.30106601119041443
      ],
      "min": [
        0.10024899989366531,
        0.0099149998277425766
      ],
      "type": "VEC2"
    },
    {
      "bufferView": 0,
      "byteOffset": 104940,
      "componentType": 5125,
      "count": 2637,
      "max": [
        2469
      ],
      "min": [
        0
      ],
      "type": "SCALAR"
    }
  ],
  "asset": {
    "extras": {
      "author": "Bkavin.Kumar (https://sketchfab.com/Bkavin.Kumar)",
      "license": "CC-BY-4.0 (http://creativecommons.org/licenses/by/4.0/)",
      "source": "https://sketchfab.com/3d-models/cap2-2-207c81b3c1d946b293041ec79c8e5a23",
      "title": "Cap2 2"
    },
    "generator": "Sketchfab-6.43.0",
    "version": "2.0"
  },
  "bufferViews": [
    {
      "buffer": 0,
      "byteLength": 115488,
      "byteOffset": 0,
      "name": "floatBufferViews",
      "target": 34963
    },
    {
      "buffer": 0,
      "byteLength": 154248,
      "byteOffset": 115488,
      "byteStride": 8,
      "name": "floatBufferViews",
      "target": 34962
    },
    {
      "buffer": 0,
      "byteLength": 462744,
      "byteOffset": 269736,
      "byteStride": 12,
      "name": "floatBufferViews",
      "target": 34962
    },
    {
      "buffer": 0,
      "byteLength": 308496,
      "byteOffset": 732480,
      "byteStride": 16,
      "name": "floatBufferViews",
      "target": 34962
    }
  ],
  "buffers": [
    {
      "byteLength": 1040976,
      "uri": "scene.bin"
    }
  ],
  "images": [
    {
      "uri": "textures/Default_OBJ_baseColor.png"
    }
  ],
  "materials": [
    {
      "doubleSided": true,
      "emissiveFactor": [
        0,
        0,
        0
      ],
      "name": "Default_OBJ",
      "pbrMetallicRoughness": {
        "baseColorFactor": [
          1,
          1,
          1,
          1
        ],
        "baseColorTexture": {
          "index": 0,
          "texCoord": 0
        },
        "metallicFactor": 0,
        "roughnessFactor": 0.80635083268962915
      }
    },
    {
      "doubleSided": true,
      "emissiveFactor": [
        0,
        0,
        0
      ],
      "name": "Material.001",
      "pbrMetallicRoughness": {
        "baseColorFactor": [
          0.80000000000000004,
          0.67154800000000003,
          0.061691999999999997,
          1
        ],
        "metallicFactor": 0,
        "roughnessFactor": 0.78803183755802242
      }
    }
  ],
  "meshes": [
    {
      "primitives": [
        {
          "attributes": {
            "NORMAL": 1,
            "POSITION": 0,
            "TANGENT": 2,
            "TEXCOORD_0": 3
          },
          "indices": 4,
          "material": 0,
          "mode": 4
        }
      ]
    },
    {
      "primitives": [
        {
          "attributes": {
            "NORMAL": 6,
            "POSITION": 5,
            "TANGENT": 7,
            "TEXCOORD_0": 8
          },
          "indices": 9,
          "material": 1,
          "mode": 4
        }
      ]
    }
  ],
  "nodes": [
    {
      "children": [
        1
      ],
      "name": "RootNode (gltf orientation matrix)",
      "rotation": [
        -0.70710678118654746,
        -0,
        -0,
        0.70710678118654757
      ]
    },
    {
      "children": [
        2
      ],
      "name": "RootNode (model correction matrix)"
    },
    {
      "children": [
        3,
        4
      ],
      "name": "CAPD2.obj.cleaner.materialmerger.gles"
    },
    {
      "mesh": 0,
      "name": ""
    },
    {
      "mesh": 1,
      "name": ""
    }
  ],
  "samplers": [
    {
      "magFilter": 9729,
      "minFilter": 9987,
      "wrapS": 10497,
      "wrapT": 10497
    }
  ],
  "scene": 0,
  "scenes": [
    {
      "name": "OSG_Scene",
      "nodes": [
        0
      ]
    }
  ],
  "textures": [
    {
      "sampler": 0,
      "source": 0
    }
  ]
}

